<mxfile host="65bd71144e">
    <diagram id="cqZZ-m5F7JfO_E2lkw66" name="Page-1">
        <mxGraphModel dx="1737" dy="766" grid="1" gridSize="10" guides="1" tooltips="1" connect="1" arrows="1" fold="1" page="1" pageScale="1" pageWidth="1920" pageHeight="1200" background="none" math="0" shadow="0">
            <root>
                <mxCell id="0"/>
                <mxCell id="1" parent="0"/>
                <mxCell id="42" value="BasicStudent" style="swimlane;fontStyle=1;align=center;verticalAlign=top;childLayout=stackLayout;horizontal=1;startSize=26;horizontalStack=0;resizeParent=1;resizeParentMax=0;resizeLast=0;collapsible=1;marginBottom=0;fontFamily=Verdana;fontSize=14;" parent="1" vertex="1">
                    <mxGeometry x="1250" width="310" height="390" as="geometry"/>
                </mxCell>
                <mxCell id="46" value="+ id: string" style="text;strokeColor=none;fillColor=none;align=left;verticalAlign=top;spacingLeft=4;spacingRight=4;overflow=hidden;rotatable=0;points=[[0,0.5],[1,0.5]];portConstraint=eastwest;fontFamily=Verdana;fontSize=14;" parent="42" vertex="1">
                    <mxGeometry y="26" width="310" height="26" as="geometry"/>
                </mxCell>
                <mxCell id="43" value="+ git: string" style="text;strokeColor=none;fillColor=none;align=left;verticalAlign=top;spacingLeft=4;spacingRight=4;overflow=hidden;rotatable=0;points=[[0,0.5],[1,0.5]];portConstraint=eastwest;fontFamily=Verdana;fontSize=14;" parent="42" vertex="1">
                    <mxGeometry y="52" width="310" height="26" as="geometry"/>
                </mxCell>
                <mxCell id="147" value="operations" style="text;strokeColor=default;fillColor=none;align=center;verticalAlign=top;spacingLeft=4;spacingRight=4;overflow=hidden;rotatable=0;points=[[0,0.5],[1,0.5]];portConstraint=eastwest;fontFamily=Verdana;fontSize=14;" parent="42" vertex="1">
                    <mxGeometry y="78" width="310" height="26" as="geometry"/>
                </mxCell>
                <mxCell id="94" value="+ self.telegram_correct?(stirng): bool" style="text;strokeColor=none;fillColor=none;align=left;verticalAlign=top;spacingLeft=4;spacingRight=4;overflow=hidden;rotatable=0;points=[[0,0.5],[1,0.5]];portConstraint=eastwest;fontFamily=Verdana;fontSize=14;" parent="42" vertex="1">
                    <mxGeometry y="104" width="310" height="26" as="geometry"/>
                </mxCell>
                <mxCell id="97" value="+ self.name_correct?(string): boolÂ " style="text;strokeColor=none;fillColor=none;align=left;verticalAlign=top;spacingLeft=4;spacingRight=4;overflow=hidden;rotatable=0;points=[[0,0.5],[1,0.5]];portConstraint=eastwest;fontFamily=Verdana;fontSize=14;perimeterSpacing=0;" parent="42" vertex="1">
                    <mxGeometry y="130" width="310" height="26" as="geometry"/>
                </mxCell>
                <mxCell id="99" value="+ self.tel_num_correct?(string): bool" style="text;strokeColor=none;fillColor=none;align=left;verticalAlign=top;spacingLeft=4;spacingRight=4;overflow=hidden;rotatable=0;points=[[0,0.5],[1,0.5]];portConstraint=eastwest;fontFamily=Verdana;fontSize=14;" parent="42" vertex="1">
                    <mxGeometry y="156" width="310" height="26" as="geometry"/>
                </mxCell>
                <mxCell id="98" value="+ self.id_correct?(string): bool" style="text;strokeColor=none;fillColor=none;align=left;verticalAlign=top;spacingLeft=4;spacingRight=4;overflow=hidden;rotatable=0;points=[[0,0.5],[1,0.5]];portConstraint=eastwest;fontFamily=Verdana;fontSize=14;" parent="42" vertex="1">
                    <mxGeometry y="182" width="310" height="26" as="geometry"/>
                </mxCell>
                <mxCell id="96" value="+ self.git_correct?(string): bool" style="text;strokeColor=none;fillColor=none;align=left;verticalAlign=top;spacingLeft=4;spacingRight=4;overflow=hidden;rotatable=0;points=[[0,0.5],[1,0.5]];portConstraint=eastwest;fontFamily=Verdana;fontSize=14;" parent="42" vertex="1">
                    <mxGeometry y="208" width="310" height="26" as="geometry"/>
                </mxCell>
                <mxCell id="95" value="+ self.mail_correct?(string): bool" style="text;strokeColor=none;fillColor=none;align=left;verticalAlign=top;spacingLeft=4;spacingRight=4;overflow=hidden;rotatable=0;points=[[0,0.5],[1,0.5]];portConstraint=eastwest;fontFamily=Verdana;fontSize=14;" parent="42" vertex="1">
                    <mxGeometry y="234" width="310" height="26" as="geometry"/>
                </mxCell>
                <mxCell id="150" value="+ self.fio_correct?(string): bool" style="text;strokeColor=none;fillColor=none;align=left;verticalAlign=top;spacingLeft=4;spacingRight=4;overflow=hidden;rotatable=0;points=[[0,0.5],[1,0.5]];portConstraint=eastwest;fontFamily=Verdana;fontSize=14;" parent="42" vertex="1">
                    <mxGeometry y="260" width="310" height="26" as="geometry"/>
                </mxCell>
                <mxCell id="151" value="+ self.contact_correct?(string): bool" style="text;strokeColor=none;fillColor=none;align=left;verticalAlign=top;spacingLeft=4;spacingRight=4;overflow=hidden;rotatable=0;points=[[0,0.5],[1,0.5]];portConstraint=eastwest;fontFamily=Verdana;fontSize=14;" parent="42" vertex="1">
                    <mxGeometry y="286" width="310" height="26" as="geometry"/>
                </mxCell>
                <mxCell id="134" value="getters" style="text;strokeColor=default;fillColor=none;align=center;verticalAlign=top;spacingLeft=4;spacingRight=4;overflow=hidden;rotatable=0;points=[[0,0.5],[1,0.5]];portConstraint=eastwest;fontFamily=Verdana;fontSize=14;" parent="42" vertex="1">
                    <mxGeometry y="312" width="310" height="26" as="geometry"/>
                </mxCell>
                <mxCell id="135" value="+ id(): string" style="text;strokeColor=none;fillColor=none;align=left;verticalAlign=top;spacingLeft=4;spacingRight=4;overflow=hidden;rotatable=0;points=[[0,0.5],[1,0.5]];portConstraint=eastwest;fontFamily=Verdana;fontSize=14;" parent="42" vertex="1">
                    <mxGeometry y="338" width="310" height="26" as="geometry"/>
                </mxCell>
                <mxCell id="136" value="+ git(): string" style="text;strokeColor=none;fillColor=none;align=left;verticalAlign=top;spacingLeft=4;spacingRight=4;overflow=hidden;rotatable=0;points=[[0,0.5],[1,0.5]];portConstraint=eastwest;fontFamily=Verdana;fontSize=14;" parent="42" vertex="1">
                    <mxGeometry y="364" width="310" height="26" as="geometry"/>
                </mxCell>
                <mxCell id="133" style="edgeStyle=none;html=1;entryX=0.5;entryY=1;entryDx=0;entryDy=0;strokeWidth=3;fontFamily=Verdana;fontSize=14;endArrow=block;endFill=0;" parent="1" source="64" target="42" edge="1">
                    <mxGeometry relative="1" as="geometry"/>
                </mxCell>
                <mxCell id="64" value="ShortStudent" style="swimlane;fontStyle=1;align=center;verticalAlign=top;childLayout=stackLayout;horizontal=1;startSize=26;horizontalStack=0;resizeParent=1;resizeParentMax=0;resizeLast=0;collapsible=1;marginBottom=0;fontFamily=Verdana;fontSize=14;" parent="1" vertex="1">
                    <mxGeometry x="1250" y="440" width="310" height="312" as="geometry"/>
                </mxCell>
                <mxCell id="70" value="attributes" style="text;strokeColor=default;fillColor=none;align=center;verticalAlign=top;spacingLeft=4;spacingRight=4;overflow=hidden;rotatable=0;points=[[0,0.5],[1,0.5]];portConstraint=eastwest;fontFamily=Verdana;fontSize=14;" parent="64" vertex="1">
                    <mxGeometry y="26" width="310" height="26" as="geometry"/>
                </mxCell>
                <mxCell id="65" value="+ fio: string" style="text;strokeColor=none;fillColor=none;align=left;verticalAlign=top;spacingLeft=4;spacingRight=4;overflow=hidden;rotatable=0;points=[[0,0.5],[1,0.5]];portConstraint=eastwest;fontFamily=Verdana;fontSize=14;" parent="64" vertex="1">
                    <mxGeometry y="52" width="310" height="26" as="geometry"/>
                </mxCell>
                <mxCell id="66" value="+ contact: string" style="text;strokeColor=none;fillColor=none;align=left;verticalAlign=top;spacingLeft=4;spacingRight=4;overflow=hidden;rotatable=0;points=[[0,0.5],[1,0.5]];portConstraint=eastwest;fontFamily=Verdana;fontSize=14;" parent="64" vertex="1">
                    <mxGeometry y="78" width="310" height="26" as="geometry"/>
                </mxCell>
                <mxCell id="73" value="operations" style="text;strokeColor=default;fillColor=none;align=center;verticalAlign=top;spacingLeft=4;spacingRight=4;overflow=hidden;rotatable=0;points=[[0,0.5],[1,0.5]];portConstraint=eastwest;fontFamily=Verdana;fontSize=14;" parent="64" vertex="1">
                    <mxGeometry y="104" width="310" height="26" as="geometry"/>
                </mxCell>
                <mxCell id="68" value="+ self.fromStudent(Student): void" style="text;strokeColor=none;fillColor=none;align=left;verticalAlign=top;spacingLeft=4;spacingRight=4;overflow=hidden;rotatable=0;points=[[0,0.5],[1,0.5]];portConstraint=eastwest;fontFamily=Verdana;fontSize=14;" parent="64" vertex="1">
                    <mxGeometry y="130" width="310" height="26" as="geometry"/>
                </mxCell>
                <mxCell id="148" value="+ self.fromStr(String, String): void" style="text;strokeColor=none;fillColor=none;align=left;verticalAlign=top;spacingLeft=4;spacingRight=4;overflow=hidden;rotatable=0;points=[[0,0.5],[1,0.5]];portConstraint=eastwest;fontFamily=Verdana;fontSize=14;" parent="64" vertex="1">
                    <mxGeometry y="156" width="310" height="26" as="geometry"/>
                </mxCell>
                <mxCell id="149" value="+ self.parseStr(String): bool" style="text;strokeColor=none;fillColor=none;align=left;verticalAlign=top;spacingLeft=4;spacingRight=4;overflow=hidden;rotatable=0;points=[[0,0.5],[1,0.5]];portConstraint=eastwest;fontFamily=Verdana;fontSize=14;" parent="64" vertex="1">
                    <mxGeometry y="182" width="310" height="26" as="geometry"/>
                </mxCell>
                <mxCell id="69" value="+ to_s(): string" style="text;strokeColor=none;fillColor=none;align=left;verticalAlign=top;spacingLeft=4;spacingRight=4;overflow=hidden;rotatable=0;points=[[0,0.5],[1,0.5]];portConstraint=eastwest;fontFamily=Verdana;fontSize=14;" parent="64" vertex="1">
                    <mxGeometry y="208" width="310" height="26" as="geometry"/>
                </mxCell>
                <mxCell id="74" value="getters" style="text;strokeColor=default;fillColor=none;align=center;verticalAlign=top;spacingLeft=4;spacingRight=4;overflow=hidden;rotatable=0;points=[[0,0.5],[1,0.5]];portConstraint=eastwest;fontFamily=Verdana;fontSize=14;" parent="64" vertex="1">
                    <mxGeometry y="234" width="310" height="26" as="geometry"/>
                </mxCell>
                <mxCell id="75" value="+fio(): string" style="text;strokeColor=none;fillColor=none;align=left;verticalAlign=top;spacingLeft=4;spacingRight=4;overflow=hidden;rotatable=0;points=[[0,0.5],[1,0.5]];portConstraint=eastwest;fontFamily=Verdana;fontSize=14;" parent="64" vertex="1">
                    <mxGeometry y="260" width="310" height="26" as="geometry"/>
                </mxCell>
                <mxCell id="76" value="+contact(): string" style="text;strokeColor=none;fillColor=none;align=left;verticalAlign=top;spacingLeft=4;spacingRight=4;overflow=hidden;rotatable=0;points=[[0,0.5],[1,0.5]];portConstraint=eastwest;fontFamily=Verdana;fontSize=14;" parent="64" vertex="1">
                    <mxGeometry y="286" width="310" height="26" as="geometry"/>
                </mxCell>
                <mxCell id="132" style="edgeStyle=none;html=1;entryX=1;entryY=0.5;entryDx=0;entryDy=0;fontFamily=Verdana;fontSize=14;endArrow=block;endFill=0;strokeWidth=3;" parent="1" source="78" target="46" edge="1">
                    <mxGeometry relative="1" as="geometry"/>
                </mxCell>
                <mxCell id="78" value="Student" style="swimlane;fontStyle=1;align=center;verticalAlign=top;childLayout=stackLayout;horizontal=1;startSize=26;horizontalStack=0;resizeParent=1;resizeParentMax=0;resizeLast=0;collapsible=1;marginBottom=0;fontFamily=Verdana;fontSize=14;" parent="1" vertex="1">
                    <mxGeometry x="1600" y="130" width="320" height="906" as="geometry"/>
                </mxCell>
                <mxCell id="108" value="attributes" style="text;strokeColor=default;fillColor=none;align=center;verticalAlign=top;spacingLeft=4;spacingRight=4;overflow=hidden;rotatable=0;points=[[0,0.5],[1,0.5]];portConstraint=eastwest;fontFamily=Verdana;fontSize=14;" parent="78" vertex="1">
                    <mxGeometry y="26" width="320" height="26" as="geometry"/>
                </mxCell>
                <mxCell id="79" value="+ last_name: string" style="text;strokeColor=none;fillColor=none;align=left;verticalAlign=top;spacingLeft=4;spacingRight=4;overflow=hidden;rotatable=0;points=[[0,0.5],[1,0.5]];portConstraint=eastwest;fontFamily=Verdana;fontSize=14;" parent="78" vertex="1">
                    <mxGeometry y="52" width="320" height="34" as="geometry"/>
                </mxCell>
                <mxCell id="80" value="+ first_name: string" style="text;strokeColor=none;fillColor=none;align=left;verticalAlign=top;spacingLeft=4;spacingRight=4;overflow=hidden;rotatable=0;points=[[0,0.5],[1,0.5]];portConstraint=eastwest;fontFamily=Verdana;fontSize=14;" parent="78" vertex="1">
                    <mxGeometry y="86" width="320" height="34" as="geometry"/>
                </mxCell>
                <mxCell id="81" value="+ patronymic: string" style="text;strokeColor=none;fillColor=none;align=left;verticalAlign=top;spacingLeft=4;spacingRight=4;overflow=hidden;rotatable=0;points=[[0,0.5],[1,0.5]];portConstraint=eastwest;fontFamily=Verdana;fontSize=14;" parent="78" vertex="1">
                    <mxGeometry y="120" width="320" height="34" as="geometry"/>
                </mxCell>
                <mxCell id="82" value="+ telegram: string" style="text;strokeColor=none;fillColor=none;align=left;verticalAlign=top;spacingLeft=4;spacingRight=4;overflow=hidden;rotatable=0;points=[[0,0.5],[1,0.5]];portConstraint=eastwest;fontFamily=Verdana;fontSize=14;" parent="78" vertex="1">
                    <mxGeometry y="154" width="320" height="34" as="geometry"/>
                </mxCell>
                <mxCell id="83" value="+ mail: string" style="text;strokeColor=none;fillColor=none;align=left;verticalAlign=top;spacingLeft=4;spacingRight=4;overflow=hidden;rotatable=0;points=[[0,0.5],[1,0.5]];portConstraint=eastwest;fontFamily=Verdana;fontSize=14;" parent="78" vertex="1">
                    <mxGeometry y="188" width="320" height="34" as="geometry"/>
                </mxCell>
                <mxCell id="84" value="+ tel_num: string" style="text;strokeColor=none;fillColor=none;align=left;verticalAlign=top;spacingLeft=4;spacingRight=4;overflow=hidden;rotatable=0;points=[[0,0.5],[1,0.5]];portConstraint=eastwest;fontFamily=Verdana;fontSize=14;" parent="78" vertex="1">
                    <mxGeometry y="222" width="320" height="34" as="geometry"/>
                </mxCell>
                <mxCell id="109" value="operations" style="text;strokeColor=default;fillColor=none;align=center;verticalAlign=top;spacingLeft=4;spacingRight=4;overflow=hidden;rotatable=0;points=[[0,0.5],[1,0.5]];portConstraint=eastwest;fontFamily=Verdana;fontSize=14;" parent="78" vertex="1">
                    <mxGeometry y="256" width="320" height="26" as="geometry"/>
                </mxCell>
                <mxCell id="86" value="+ self.fromStr(string) : void" style="text;strokeColor=none;fillColor=none;align=left;verticalAlign=top;spacingLeft=4;spacingRight=4;overflow=hidden;rotatable=0;points=[[0,0.5],[1,0.5]];portConstraint=eastwest;fontFamily=Verdana;fontSize=14;" parent="78" vertex="1">
                    <mxGeometry y="282" width="320" height="26" as="geometry"/>
                </mxCell>
                <mxCell id="87" value="+ self.read_from_txt(string) void" style="text;strokeColor=none;fillColor=none;align=left;verticalAlign=top;spacingLeft=4;spacingRight=4;overflow=hidden;rotatable=0;points=[[0,0.5],[1,0.5]];portConstraint=eastwest;fontFamily=Verdana;fontSize=14;" parent="78" vertex="1">
                    <mxGeometry y="308" width="320" height="26" as="geometry"/>
                </mxCell>
                <mxCell id="88" value="+ self.write_to_txt(string, self): void" style="text;strokeColor=none;fillColor=none;align=left;verticalAlign=top;spacingLeft=4;spacingRight=4;overflow=hidden;rotatable=0;points=[[0,0.5],[1,0.5]];portConstraint=eastwest;fontFamily=Verdana;fontSize=14;" parent="78" vertex="1">
                    <mxGeometry y="334" width="320" height="26" as="geometry"/>
                </mxCell>
                <mxCell id="89" value="+ getFio(): string" style="text;strokeColor=none;fillColor=none;align=left;verticalAlign=top;spacingLeft=4;spacingRight=4;overflow=hidden;rotatable=0;points=[[0,0.5],[1,0.5]];portConstraint=eastwest;fontFamily=Verdana;fontSize=14;" parent="78" vertex="1">
                    <mxGeometry y="360" width="320" height="26" as="geometry"/>
                </mxCell>
                <mxCell id="90" value="+ getContact(): stritng" style="text;strokeColor=none;fillColor=none;align=left;verticalAlign=top;spacingLeft=4;spacingRight=4;overflow=hidden;rotatable=0;points=[[0,0.5],[1,0.5]];portConstraint=eastwest;fontFamily=Verdana;fontSize=14;" parent="78" vertex="1">
                    <mxGeometry y="386" width="320" height="26" as="geometry"/>
                </mxCell>
                <mxCell id="91" value="+ getInfo(): string" style="text;strokeColor=none;fillColor=none;align=left;verticalAlign=top;spacingLeft=4;spacingRight=4;overflow=hidden;rotatable=0;points=[[0,0.5],[1,0.5]];portConstraint=eastwest;fontFamily=Verdana;fontSize=14;" parent="78" vertex="1">
                    <mxGeometry y="412" width="320" height="26" as="geometry"/>
                </mxCell>
                <mxCell id="92" value="+ set_contects(string, string, string): void" style="text;strokeColor=none;fillColor=none;align=left;verticalAlign=top;spacingLeft=4;spacingRight=4;overflow=hidden;rotatable=0;points=[[0,0.5],[1,0.5]];portConstraint=eastwest;fontFamily=Verdana;fontSize=14;" parent="78" vertex="1">
                    <mxGeometry y="438" width="320" height="26" as="geometry"/>
                </mxCell>
                <mxCell id="93" value="+ contact_and_git?(): bool" style="text;strokeColor=none;fillColor=none;align=left;verticalAlign=top;spacingLeft=4;spacingRight=4;overflow=hidden;rotatable=0;points=[[0,0.5],[1,0.5]];portConstraint=eastwest;fontFamily=Verdana;fontSize=14;" parent="78" vertex="1">
                    <mxGeometry y="464" width="320" height="26" as="geometry"/>
                </mxCell>
                <mxCell id="110" value="setters" style="text;strokeColor=default;fillColor=none;align=center;verticalAlign=top;spacingLeft=4;spacingRight=4;overflow=hidden;rotatable=0;points=[[0,0.5],[1,0.5]];portConstraint=eastwest;fontFamily=Verdana;fontSize=14;" parent="78" vertex="1">
                    <mxGeometry y="490" width="320" height="26" as="geometry"/>
                </mxCell>
                <mxCell id="106" value="+ telegram=(string): void" style="text;strokeColor=none;fillColor=none;align=left;verticalAlign=top;spacingLeft=4;spacingRight=4;overflow=hidden;rotatable=0;points=[[0,0.5],[1,0.5]];portConstraint=eastwest;fontFamily=Verdana;fontSize=14;" parent="78" vertex="1">
                    <mxGeometry y="516" width="320" height="26" as="geometry"/>
                </mxCell>
                <mxCell id="102" value="+ mail=(string): void" style="text;strokeColor=none;fillColor=none;align=left;verticalAlign=top;spacingLeft=4;spacingRight=4;overflow=hidden;rotatable=0;points=[[0,0.5],[1,0.5]];portConstraint=eastwest;fontFamily=Verdana;fontSize=14;" parent="78" vertex="1">
                    <mxGeometry y="542" width="320" height="26" as="geometry"/>
                </mxCell>
                <mxCell id="100" value="+ last_name=(string): void" style="text;strokeColor=none;fillColor=none;align=left;verticalAlign=top;spacingLeft=4;spacingRight=4;overflow=hidden;rotatable=0;points=[[0,0.5],[1,0.5]];portConstraint=eastwest;fontFamily=Verdana;fontSize=14;" parent="78" vertex="1">
                    <mxGeometry y="568" width="320" height="26" as="geometry"/>
                </mxCell>
                <mxCell id="101" value="+ first_name=(string): void" style="text;strokeColor=none;fillColor=none;align=left;verticalAlign=top;spacingLeft=4;spacingRight=4;overflow=hidden;rotatable=0;points=[[0,0.5],[1,0.5]];portConstraint=eastwest;fontFamily=Verdana;fontSize=14;" parent="78" vertex="1">
                    <mxGeometry y="594" width="320" height="26" as="geometry"/>
                </mxCell>
                <mxCell id="103" value="+ patronymic=(string): void" style="text;strokeColor=none;fillColor=none;align=left;verticalAlign=top;spacingLeft=4;spacingRight=4;overflow=hidden;rotatable=0;points=[[0,0.5],[1,0.5]];portConstraint=eastwest;fontFamily=Verdana;fontSize=14;" parent="78" vertex="1">
                    <mxGeometry y="620" width="320" height="26" as="geometry"/>
                </mxCell>
                <mxCell id="107" value="+ tel_num=(string): void" style="text;strokeColor=none;fillColor=none;align=left;verticalAlign=top;spacingLeft=4;spacingRight=4;overflow=hidden;rotatable=0;points=[[0,0.5],[1,0.5]];portConstraint=eastwest;fontFamily=Verdana;fontSize=14;" parent="78" vertex="1">
                    <mxGeometry y="646" width="320" height="26" as="geometry"/>
                </mxCell>
                <mxCell id="105" value="+ git=(string): void" style="text;strokeColor=none;fillColor=none;align=left;verticalAlign=top;spacingLeft=4;spacingRight=4;overflow=hidden;rotatable=0;points=[[0,0.5],[1,0.5]];portConstraint=eastwest;fontFamily=Verdana;fontSize=14;" parent="78" vertex="1">
                    <mxGeometry y="672" width="320" height="26" as="geometry"/>
                </mxCell>
                <mxCell id="104" value="+ id=(string): void" style="text;strokeColor=none;fillColor=none;align=left;verticalAlign=top;spacingLeft=4;spacingRight=4;overflow=hidden;rotatable=0;points=[[0,0.5],[1,0.5]];portConstraint=eastwest;fontFamily=Verdana;fontSize=14;" parent="78" vertex="1">
                    <mxGeometry y="698" width="320" height="26" as="geometry"/>
                </mxCell>
                <mxCell id="111" value="getters" style="text;strokeColor=default;fillColor=none;align=center;verticalAlign=top;spacingLeft=4;spacingRight=4;overflow=hidden;rotatable=0;points=[[0,0.5],[1,0.5]];portConstraint=eastwest;fontFamily=Verdana;fontSize=14;" parent="78" vertex="1">
                    <mxGeometry y="724" width="320" height="26" as="geometry"/>
                </mxCell>
                <mxCell id="115" value="+tel_num(): string" style="text;strokeColor=none;fillColor=none;align=left;verticalAlign=top;spacingLeft=4;spacingRight=4;overflow=hidden;rotatable=0;points=[[0,0.5],[1,0.5]];portConstraint=eastwest;fontFamily=Verdana;fontSize=14;" parent="78" vertex="1">
                    <mxGeometry y="750" width="320" height="26" as="geometry"/>
                </mxCell>
                <mxCell id="116" value="+telegram(): string" style="text;strokeColor=none;fillColor=none;align=left;verticalAlign=top;spacingLeft=4;spacingRight=4;overflow=hidden;rotatable=0;points=[[0,0.5],[1,0.5]];portConstraint=eastwest;fontFamily=Verdana;fontSize=14;" parent="78" vertex="1">
                    <mxGeometry y="776" width="320" height="26" as="geometry"/>
                </mxCell>
                <mxCell id="117" value="+ mail(): string" style="text;strokeColor=none;fillColor=none;align=left;verticalAlign=top;spacingLeft=4;spacingRight=4;overflow=hidden;rotatable=0;points=[[0,0.5],[1,0.5]];portConstraint=eastwest;fontFamily=Verdana;fontSize=14;" parent="78" vertex="1">
                    <mxGeometry y="802" width="320" height="26" as="geometry"/>
                </mxCell>
                <mxCell id="118" value="+ last_name(): string" style="text;strokeColor=none;fillColor=none;align=left;verticalAlign=top;spacingLeft=4;spacingRight=4;overflow=hidden;rotatable=0;points=[[0,0.5],[1,0.5]];portConstraint=eastwest;fontFamily=Verdana;fontSize=14;" parent="78" vertex="1">
                    <mxGeometry y="828" width="320" height="26" as="geometry"/>
                </mxCell>
                <mxCell id="119" value="+ first_name(): string" style="text;strokeColor=none;fillColor=none;align=left;verticalAlign=top;spacingLeft=4;spacingRight=4;overflow=hidden;rotatable=0;points=[[0,0.5],[1,0.5]];portConstraint=eastwest;fontFamily=Verdana;fontSize=14;" parent="78" vertex="1">
                    <mxGeometry y="854" width="320" height="26" as="geometry"/>
                </mxCell>
                <mxCell id="120" value="+ patronymic(): string" style="text;strokeColor=none;fillColor=none;align=left;verticalAlign=top;spacingLeft=4;spacingRight=4;overflow=hidden;rotatable=0;points=[[0,0.5],[1,0.5]];portConstraint=eastwest;fontFamily=Verdana;fontSize=14;" parent="78" vertex="1">
                    <mxGeometry y="880" width="320" height="26" as="geometry"/>
                </mxCell>
                <mxCell id="137" value="Data_table" style="swimlane;fontStyle=1;align=center;verticalAlign=top;childLayout=stackLayout;horizontal=1;startSize=26;horizontalStack=0;resizeParent=1;resizeParentMax=0;resizeLast=0;collapsible=1;marginBottom=0;fontFamily=Verdana;fontSize=14;" parent="1" vertex="1">
                    <mxGeometry x="100" width="260" height="286" as="geometry"/>
                </mxCell>
                <mxCell id="138" value="attributes" style="text;strokeColor=default;fillColor=none;align=center;verticalAlign=top;spacingLeft=4;spacingRight=4;overflow=hidden;rotatable=0;points=[[0,0.5],[1,0.5]];portConstraint=eastwest;fontFamily=Verdana;fontSize=14;" parent="137" vertex="1">
                    <mxGeometry y="26" width="260" height="26" as="geometry"/>
                </mxCell>
                <mxCell id="140" value="+ count_column: int" style="text;strokeColor=none;fillColor=none;align=left;verticalAlign=top;spacingLeft=4;spacingRight=4;overflow=hidden;rotatable=0;points=[[0,0.5],[1,0.5]];portConstraint=eastwest;fontFamily=Verdana;fontSize=14;" parent="137" vertex="1">
                    <mxGeometry y="52" width="260" height="26" as="geometry"/>
                </mxCell>
                <mxCell id="202" value="- table: Array[Array]" style="text;strokeColor=none;fillColor=none;align=left;verticalAlign=top;spacingLeft=4;spacingRight=4;overflow=hidden;rotatable=0;points=[[0,0.5],[1,0.5]];portConstraint=eastwest;fontFamily=Verdana;fontSize=14;" vertex="1" parent="137">
                    <mxGeometry y="78" width="260" height="26" as="geometry"/>
                </mxCell>
                <mxCell id="139" value="+ count_line: int" style="text;strokeColor=none;fillColor=none;align=left;verticalAlign=top;spacingLeft=4;spacingRight=4;overflow=hidden;rotatable=0;points=[[0,0.5],[1,0.5]];portConstraint=eastwest;fontFamily=Verdana;fontSize=14;" parent="137" vertex="1">
                    <mxGeometry y="104" width="260" height="26" as="geometry"/>
                </mxCell>
                <mxCell id="141" value="operations" style="text;strokeColor=default;fillColor=none;align=center;verticalAlign=top;spacingLeft=4;spacingRight=4;overflow=hidden;rotatable=0;points=[[0,0.5],[1,0.5]];portConstraint=eastwest;fontFamily=Verdana;fontSize=14;" parent="137" vertex="1">
                    <mxGeometry y="130" width="260" height="26" as="geometry"/>
                </mxCell>
                <mxCell id="142" value="+ value(int, int): String" style="text;strokeColor=none;fillColor=none;align=left;verticalAlign=top;spacingLeft=4;spacingRight=4;overflow=hidden;rotatable=0;points=[[0,0.5],[1,0.5]];portConstraint=eastwest;fontFamily=Verdana;fontSize=14;" parent="137" vertex="1">
                    <mxGeometry y="156" width="260" height="26" as="geometry"/>
                </mxCell>
                <mxCell id="143" value="+ to_s(): string" style="text;strokeColor=none;fillColor=none;align=left;verticalAlign=top;spacingLeft=4;spacingRight=4;overflow=hidden;rotatable=0;points=[[0,0.5],[1,0.5]];portConstraint=eastwest;fontFamily=Verdana;fontSize=14;" parent="137" vertex="1">
                    <mxGeometry y="182" width="260" height="26" as="geometry"/>
                </mxCell>
                <mxCell id="144" value="getters" style="text;strokeColor=default;fillColor=none;align=center;verticalAlign=top;spacingLeft=4;spacingRight=4;overflow=hidden;rotatable=0;points=[[0,0.5],[1,0.5]];portConstraint=eastwest;fontFamily=Verdana;fontSize=14;" parent="137" vertex="1">
                    <mxGeometry y="208" width="260" height="26" as="geometry"/>
                </mxCell>
                <mxCell id="153" value="+ count_column: int" style="text;strokeColor=none;fillColor=none;align=left;verticalAlign=top;spacingLeft=4;spacingRight=4;overflow=hidden;rotatable=0;points=[[0,0.5],[1,0.5]];portConstraint=eastwest;fontFamily=Verdana;fontSize=14;" vertex="1" parent="137">
                    <mxGeometry y="234" width="260" height="26" as="geometry"/>
                </mxCell>
                <mxCell id="152" value="+ count_line: int" style="text;strokeColor=none;fillColor=none;align=left;verticalAlign=top;spacingLeft=4;spacingRight=4;overflow=hidden;rotatable=0;points=[[0,0.5],[1,0.5]];portConstraint=eastwest;fontFamily=Verdana;fontSize=14;" vertex="1" parent="137">
                    <mxGeometry y="260" width="260" height="26" as="geometry"/>
                </mxCell>
                <mxCell id="157" value="Data_list" style="swimlane;fontStyle=1;align=center;verticalAlign=top;childLayout=stackLayout;horizontal=1;startSize=26;horizontalStack=0;resizeParent=1;resizeParentMax=0;resizeLast=0;collapsible=1;marginBottom=0;fontFamily=Verdana;fontSize=14;" vertex="1" parent="1">
                    <mxGeometry x="730" width="260" height="442" as="geometry"/>
                </mxCell>
                <mxCell id="158" value="attributes" style="text;strokeColor=default;fillColor=none;align=center;verticalAlign=top;spacingLeft=4;spacingRight=4;overflow=hidden;rotatable=0;points=[[0,0.5],[1,0.5]];portConstraint=eastwest;fontFamily=Verdana;fontSize=14;" vertex="1" parent="157">
                    <mxGeometry y="26" width="260" height="26" as="geometry"/>
                </mxCell>
                <mxCell id="159" value="+ mass: Array" style="text;strokeColor=none;fillColor=none;align=left;verticalAlign=top;spacingLeft=4;spacingRight=4;overflow=hidden;rotatable=0;points=[[0,0.5],[1,0.5]];portConstraint=eastwest;fontFamily=Verdana;fontSize=14;" vertex="1" parent="157">
                    <mxGeometry y="52" width="260" height="26" as="geometry"/>
                </mxCell>
                <mxCell id="160" value="+ selected: Array" style="text;strokeColor=none;fillColor=none;align=left;verticalAlign=top;spacingLeft=4;spacingRight=4;overflow=hidden;rotatable=0;points=[[0,0.5],[1,0.5]];portConstraint=eastwest;fontFamily=Verdana;fontSize=14;" vertex="1" parent="157">
                    <mxGeometry y="78" width="260" height="26" as="geometry"/>
                </mxCell>
                <mxCell id="161" value="operations" style="text;strokeColor=default;fillColor=none;align=center;verticalAlign=top;spacingLeft=4;spacingRight=4;overflow=hidden;rotatable=0;points=[[0,0.5],[1,0.5]];portConstraint=eastwest;fontFamily=Verdana;fontSize=14;" vertex="1" parent="157">
                    <mxGeometry y="104" width="260" height="26" as="geometry"/>
                </mxCell>
                <mxCell id="162" value="+ selected(int): void" style="text;strokeColor=none;fillColor=none;align=left;verticalAlign=top;spacingLeft=4;spacingRight=4;overflow=hidden;rotatable=0;points=[[0,0.5],[1,0.5]];portConstraint=eastwest;fontFamily=Verdana;fontSize=14;" vertex="1" parent="157">
                    <mxGeometry y="130" width="260" height="26" as="geometry"/>
                </mxCell>
                <mxCell id="177" value="+ get_selected(): Array" style="text;strokeColor=none;fillColor=none;align=left;verticalAlign=top;spacingLeft=4;spacingRight=4;overflow=hidden;rotatable=0;points=[[0,0.5],[1,0.5]];portConstraint=eastwest;fontFamily=Verdana;fontSize=14;" vertex="1" parent="157">
                    <mxGeometry y="156" width="260" height="26" as="geometry"/>
                </mxCell>
                <mxCell id="163" value="+ get_names(): Array" style="text;strokeColor=none;fillColor=none;align=left;verticalAlign=top;spacingLeft=4;spacingRight=4;overflow=hidden;rotatable=0;points=[[0,0.5],[1,0.5]];portConstraint=eastwest;fontFamily=Verdana;fontSize=14;" vertex="1" parent="157">
                    <mxGeometry y="182" width="260" height="26" as="geometry"/>
                </mxCell>
                <mxCell id="178" value="+ get_data(): Data_table" style="text;strokeColor=none;fillColor=none;align=left;verticalAlign=top;spacingLeft=4;spacingRight=4;overflow=hidden;rotatable=0;points=[[0,0.5],[1,0.5]];portConstraint=eastwest;fontFamily=Verdana;fontSize=14;" vertex="1" parent="157">
                    <mxGeometry y="208" width="260" height="26" as="geometry"/>
                </mxCell>
                <mxCell id="201" value="+ to_s(): string" style="text;strokeColor=none;fillColor=none;align=left;verticalAlign=top;spacingLeft=4;spacingRight=4;overflow=hidden;rotatable=0;points=[[0,0.5],[1,0.5]];portConstraint=eastwest;fontFamily=Verdana;fontSize=14;" vertex="1" parent="157">
                    <mxGeometry y="234" width="260" height="26" as="geometry"/>
                </mxCell>
                <mxCell id="200" value="- values(StudentShort): Array" style="text;strokeColor=none;fillColor=none;align=left;verticalAlign=top;spacingLeft=4;spacingRight=4;overflow=hidden;rotatable=0;points=[[0,0.5],[1,0.5]];portConstraint=eastwest;fontFamily=Verdana;fontSize=14;" vertex="1" parent="157">
                    <mxGeometry y="260" width="260" height="26" as="geometry"/>
                </mxCell>
                <mxCell id="164" value="getters" style="text;strokeColor=default;fillColor=none;align=center;verticalAlign=top;spacingLeft=4;spacingRight=4;overflow=hidden;rotatable=0;points=[[0,0.5],[1,0.5]];portConstraint=eastwest;fontFamily=Verdana;fontSize=14;" vertex="1" parent="157">
                    <mxGeometry y="286" width="260" height="26" as="geometry"/>
                </mxCell>
                <mxCell id="179" value="- mass: Array" style="text;strokeColor=none;fillColor=none;align=left;verticalAlign=top;spacingLeft=4;spacingRight=4;overflow=hidden;rotatable=0;points=[[0,0.5],[1,0.5]];portConstraint=eastwest;fontFamily=Verdana;fontSize=14;" vertex="1" parent="157">
                    <mxGeometry y="312" width="260" height="26" as="geometry"/>
                </mxCell>
                <mxCell id="180" value="- selected: Array" style="text;strokeColor=none;fillColor=none;align=left;verticalAlign=top;spacingLeft=4;spacingRight=4;overflow=hidden;rotatable=0;points=[[0,0.5],[1,0.5]];portConstraint=eastwest;fontFamily=Verdana;fontSize=14;" vertex="1" parent="157">
                    <mxGeometry y="338" width="260" height="26" as="geometry"/>
                </mxCell>
                <mxCell id="181" value="setters" style="text;strokeColor=default;fillColor=none;align=center;verticalAlign=top;spacingLeft=4;spacingRight=4;overflow=hidden;rotatable=0;points=[[0,0.5],[1,0.5]];portConstraint=eastwest;fontFamily=Verdana;fontSize=14;" vertex="1" parent="157">
                    <mxGeometry y="364" width="260" height="26" as="geometry"/>
                </mxCell>
                <mxCell id="183" value="- selected=: Array" style="text;strokeColor=none;fillColor=none;align=left;verticalAlign=top;spacingLeft=4;spacingRight=4;overflow=hidden;rotatable=0;points=[[0,0.5],[1,0.5]];portConstraint=eastwest;fontFamily=Verdana;fontSize=14;" vertex="1" parent="157">
                    <mxGeometry y="390" width="260" height="26" as="geometry"/>
                </mxCell>
                <mxCell id="182" value="- mass=: Array" style="text;strokeColor=none;fillColor=none;align=left;verticalAlign=top;spacingLeft=4;spacingRight=4;overflow=hidden;rotatable=0;points=[[0,0.5],[1,0.5]];portConstraint=eastwest;fontFamily=Verdana;fontSize=14;" vertex="1" parent="157">
                    <mxGeometry y="416" width="260" height="26" as="geometry"/>
                </mxCell>
                <mxCell id="199" style="edgeStyle=none;html=1;exitX=1;exitY=0;exitDx=0;exitDy=0;entryX=-0.005;entryY=-0.176;entryDx=0;entryDy=0;endArrow=block;endFill=0;strokeWidth=3;entryPerimeter=0;" edge="1" parent="1" source="184" target="162">
                    <mxGeometry relative="1" as="geometry"/>
                </mxCell>
                <mxCell id="184" value="Data_list_student_short" style="swimlane;fontStyle=1;align=center;verticalAlign=top;childLayout=stackLayout;horizontal=1;startSize=26;horizontalStack=0;resizeParent=1;resizeParentMax=0;resizeLast=0;collapsible=1;marginBottom=0;fontFamily=Verdana;fontSize=14;" vertex="1" parent="1">
                    <mxGeometry x="430" y="286" width="260" height="104" as="geometry"/>
                </mxCell>
                <mxCell id="188" value="operations" style="text;strokeColor=default;fillColor=none;align=center;verticalAlign=top;spacingLeft=4;spacingRight=4;overflow=hidden;rotatable=0;points=[[0,0.5],[1,0.5]];portConstraint=eastwest;fontFamily=Verdana;fontSize=14;" vertex="1" parent="184">
                    <mxGeometry y="26" width="260" height="26" as="geometry"/>
                </mxCell>
                <mxCell id="191" value="+ get_names(): Array" style="text;strokeColor=none;fillColor=none;align=left;verticalAlign=top;spacingLeft=4;spacingRight=4;overflow=hidden;rotatable=0;points=[[0,0.5],[1,0.5]];portConstraint=eastwest;fontFamily=Verdana;fontSize=14;" vertex="1" parent="184">
                    <mxGeometry y="52" width="260" height="26" as="geometry"/>
                </mxCell>
                <mxCell id="192" value="- values(StudentShort): Array" style="text;strokeColor=none;fillColor=none;align=left;verticalAlign=top;spacingLeft=4;spacingRight=4;overflow=hidden;rotatable=0;points=[[0,0.5],[1,0.5]];portConstraint=eastwest;fontFamily=Verdana;fontSize=14;" vertex="1" parent="184">
                    <mxGeometry y="78" width="260" height="26" as="geometry"/>
                </mxCell>
            </root>
        </mxGraphModel>
    </diagram>
</mxfile>